<?xml version="1.0" encoding="UTF-8"?>
<svg width="543px" height="239px" viewBox="0 0 543 239" version="1.1" xmlns="http://www.w3.org/2000/svg" xmlns:xlink="http://www.w3.org/1999/xlink">
    <!-- Generator: Sketch 3.8.1 (29687) - http://www.bohemiancoding.com/sketch -->
    <title>Artboard</title>
    <desc>Created with Sketch.</desc>
    <defs></defs>
    <g id="Page-1" stroke="none" stroke-width="1" fill="none" fill-rule="evenodd">
        <g id="Artboard">
            <g id="logo-svg-black" transform="translate(58.000000, 27.000000)">
                <g id="Page-1">
                    <g id="DataProfit---White">
                        <g id="Page-1">
                            <g id="DataProfit---Black">
                                <g id="Group" transform="translate(193.000000, 84.500000) scale(1, -1) translate(-193.000000, -84.500000) ">
                                    <path d="M120.349653,128.959061 L80.893944,89.4497136 L79.9542493,89.7595455 C78.1206994,90.3792103 77.2612226,90.493963 74.7171714,90.493963 C72.6773468,90.493963 72.2074997,90.4595373 71.1761278,90.2300318 C67.9101165,89.4956142 65.3775251,88.0956317 62.9595307,85.6858256 C60.4040201,83.1268409 58.8798814,80.2465483 58.2495986,76.7465921 C57.9974855,75.3236587 57.9974855,72.3859901 58.2495986,70.9630567 C58.8569623,67.6008035 60.3811009,64.6516594 62.7761757,62.1844766 C65.1368719,59.7517201 67.9559554,58.1796082 71.2792649,57.4451912 C72.6200486,57.1468342 76.0121167,57.0779827 77.4904165,57.3304385 C83.0254464,58.2369849 87.8499754,62.0008723 90.0846143,67.153268 C91.8837857,71.3187903 91.9067049,76.24168 90.141913,80.3613011 L89.7637432,81.2448971 L129.219452,120.834571 L168.686621,160.41277 L168.686621,164.44059 L168.686621,168.468408 L164.240261,168.468408 L159.805362,168.468408 L120.349653,128.959061 L120.349653,128.959061 L120.349653,128.959061 L120.349653,128.959061 L120.349653,128.959061 L120.349653,128.959061 L120.349653,128.959061 Z" id="Shape" fill="#EF3F2A"></path>
                                    <path d="M0,74.8875987 L0,0.0114752679 L16.501952,0.0114752679 L33.0039041,0.0114752679 L33.0039041,58.3058364 L33.0039041,116.600197 L65.4692029,116.600197 L97.9230416,116.600197 L114.402074,133.101633 C123.455229,142.167094 130.869647,149.626018 130.869647,149.683395 C130.869647,149.729296 101.429707,149.763722 65.4348239,149.763722 L0,149.763722 L0,74.8875987 L0,74.8875987 L0,74.8875987 L0,74.8875987 L0,74.8875987 L0,74.8875987 L0,74.8875987 Z" id="Shape" fill="#172751"></path>
                                    <path d="M132.840714,114.385471 L116.430439,97.952887 L116.430439,70.1712636 C116.430439,51.2714971 116.39606,42.1830849 116.304383,41.7125989 C115.513664,37.2142939 111.98408,33.8176146 107.457503,33.1864748 C106.83868,33.0946727 100.169141,33.0602469 85.9935058,33.0602469 L65.4348239,33.0602469 L65.4348239,16.5358611 L65.4348239,0.0114752679 L100.306657,0.0114752679 C138.203848,0.0114752679 136.083806,-0.0229505358 138.375744,0.642615006 C143.269031,2.06554822 147.394519,6.19664466 148.80406,11.0851088 C149.480182,13.4375388 149.434343,8.95070897 149.434343,72.5122182 C149.434343,104.585592 149.399964,130.82953 149.342666,130.82953 C149.296827,130.82953 141.870949,123.427982 132.840714,114.385471 L132.840714,114.385471 L132.840714,114.385471 L132.840714,114.385471 L132.840714,114.385471 L132.840714,114.385471 L132.840714,114.385471 Z" id="Shape" fill="#172751"></path>
                                    <path d="M355.021162,92.5480356 C351.503038,92.1005001 348.958987,90.9529734 347.113977,88.9792272 C345.486701,87.2349866 344.707442,85.1235374 344.707442,82.4383245 L344.707442,81.3711248 L343.160384,81.3711248 L341.613326,81.3711248 L341.613326,78.6170604 L341.613326,75.862996 L343.160384,75.862996 L344.707442,75.862996 L344.707442,66.7401583 L344.707442,57.61732 L348.431841,57.61732 L352.15624,57.61732 L352.15624,66.7401583 L352.15624,75.862996 L355.594147,75.862996 L359.032053,75.862996 L359.032053,66.7401583 L359.032053,57.61732 L362.756452,57.61732 L366.480851,57.61732 L366.480851,69.4942227 L366.480851,81.3711248 L359.318546,81.3711248 L352.15624,81.3711248 L352.15624,82.151443 C352.15624,84.2284664 353.153233,85.7432016 354.906566,86.3628665 C356.614059,86.9595805 360.029046,86.6841738 361.988653,85.7891028 C362.343903,85.6284495 362.664775,85.5366471 362.699154,85.5825483 C362.84813,85.7432016 364.097236,90.9988746 364.039938,91.1710034 C363.94826,91.4005089 362.217847,91.9972228 360.796845,92.2841044 C359.857151,92.4677086 359.032053,92.5365607 357.484995,92.559511 C356.350486,92.5824614 355.238896,92.5709865 355.021162,92.5480356 L355.021162,92.5480356 L355.021162,92.5480356 L355.021162,92.5480356 L355.021162,92.5480356 L355.021162,92.5480356 L355.021162,92.5480356 Z" id="Shape" fill="#EF3F2A"></path>
                                    <path d="M173.1559,90.4365864 C172.491238,90.3792103 171.196292,90.2529821 170.268057,90.1382294 L168.572024,89.9431497 L168.572024,73.8548241 L168.572024,57.7664985 L169.866968,57.6287954 C173.8664,57.2271612 178.690929,57.2042103 181.636069,57.5599439 C189.589093,58.5468167 194.333404,61.9090705 196.464906,68.048339 C197.014972,69.6319257 197.301464,71.1237106 197.45044,73.1318825 C197.771311,77.4580582 196.854536,81.3711248 194.837631,84.2399418 C193.01554,86.8448277 189.852666,88.8874254 186.254324,89.7939712 C183.928007,90.3792103 183.011232,90.4595373 178.541953,90.493963 C176.238556,90.5169134 173.820561,90.4824876 173.1559,90.4365864 L173.1559,90.4365864 L173.1559,90.4365864 L173.1559,90.4365864 L173.1559,90.4365864 L173.1559,90.4365864 L173.1559,90.4365864 Z M182.552844,84.4694473 C183.985305,84.1137137 185.65842,83.2645439 186.586655,82.4038987 C188.5921,80.5678562 189.543254,78.0318219 189.543254,74.4974393 C189.543254,68.3581708 186.815849,64.5598576 181.636069,63.4582315 C180.673455,63.2631518 180.031712,63.2057757 178.427356,63.1943003 C177.327226,63.1943003 176.353152,63.228726 176.284394,63.2746272 C176.169797,63.3549542 176.135418,65.6155819 176.135418,73.9695768 L176.135418,84.5727246 L176.80008,84.6415761 C177.155331,84.6874773 177.510581,84.7333785 177.56788,84.7678043 C177.636638,84.7907546 178.564873,84.7907546 179.630623,84.7678043 C181.097464,84.7333785 181.819424,84.6530516 182.552844,84.4694473 L182.552844,84.4694473 L182.552844,84.4694473 L182.552844,84.4694473 L182.552844,84.4694473 L182.552844,84.4694473 L182.552844,84.4694473 Z" id="Shape" fill="#172751"></path>
                                    <path d="M274.975235,90.4251109 C274.287654,90.3792103 273.004169,90.2529821 272.144692,90.1382294 L270.563255,89.9431497 L270.563255,73.7744977 L270.563255,57.61732 L274.287654,57.61732 L278.012053,57.61732 L278.012053,63.446756 L278.012053,69.2647172 L280.155015,69.2302914 C282.55009,69.1843902 283.925253,69.3220933 285.621286,69.7466784 C288.016361,70.3548678 289.643637,71.2269879 291.144856,72.7072974 C292.646075,74.1876069 293.402415,75.6220157 293.849343,77.8137918 C294.044158,78.7203377 294.067077,79.2022989 294.021238,80.6826089 C293.95248,82.7252066 293.814964,83.3563463 293.081544,84.8710816 C292.153309,86.7759762 290.846904,88.0726814 288.841459,89.0595542 C287.500675,89.7251197 286.033835,90.1382294 284.223204,90.3792103 C282.813662,90.5628146 277.335931,90.5972403 274.975235,90.4251109 L274.975235,90.4251109 L274.975235,90.4251109 L274.975235,90.4251109 L274.975235,90.4251109 L274.975235,90.4251109 L274.975235,90.4251109 Z M282.676146,84.7563288 C285.518149,84.2169915 287.122505,81.9793142 286.618279,79.2482001 C286.102593,76.4826609 283.856494,74.9564502 280.292531,74.9449747 C279.627869,74.9449747 278.837151,74.9794005 278.539199,75.0138263 L278.012053,75.0941532 L278.012053,79.8908153 L278.012053,84.6874773 L278.676715,84.7563288 C279.031965,84.7907546 279.410135,84.8481313 279.501813,84.8596061 C279.994579,84.9743589 281.885427,84.9055073 282.676146,84.7563288 L282.676146,84.7563288 L282.676146,84.7563288 L282.676146,84.7563288 L282.676146,84.7563288 L282.676146,84.7563288 L282.676146,84.7563288 Z" id="Shape" fill="#EF3F2A"></path>
                                    <path d="M231.886805,87.4071159 C230.179311,87.0054811 228.643713,86.649748 228.471818,86.6038468 L228.162406,86.5349953 L228.162406,83.9530603 L228.162406,81.3711248 L226.558049,81.3711248 L224.953693,81.3711248 L224.953693,78.6170604 L224.953693,75.862996 L226.54659,75.862996 L228.150947,75.862996 L228.185326,69.7007772 L228.231164,63.527083 L228.529116,62.413982 C229.262536,59.6943434 230.5804,58.3058364 233.204669,57.479617 C233.983928,57.2386366 234.27042,57.2156857 236.184188,57.2271612 C238.155255,57.2271612 238.934514,57.3074881 240.091942,57.61732 L240.53887,57.7435482 L240.53887,60.6008898 L240.53887,63.4697069 L239.885668,63.38938 C238.648022,63.2172511 237.433294,63.2861027 236.929068,63.5500339 C236.344624,63.8483909 236.138349,64.0778963 235.817478,64.7893625 C235.553905,65.3516507 235.553905,65.4205022 235.519526,70.6187985 L235.485147,75.862996 L238.132336,75.862996 L240.768064,75.862996 L240.768064,78.6170604 L240.768064,81.3711248 L238.132336,81.3711248 L235.496607,81.3711248 L235.496607,84.7563288 L235.496607,88.1415329 L235.244494,88.1300575 C235.095518,88.1185826 233.582839,87.7972748 231.886805,87.4071159 L231.886805,87.4071159 L231.886805,87.4071159 L231.886805,87.4071159 L231.886805,87.4071159 L231.886805,87.4071159 L231.886805,87.4071159 Z" id="Shape" fill="#172751"></path>
                                    <path d="M378.169734,87.6710471 C377.126902,87.4185908 375.591304,87.0628577 374.766206,86.867778 L373.242068,86.512045 L373.242068,83.9415849 L373.242068,81.3711248 L371.695009,81.3711248 L370.147952,81.3711248 L370.147952,78.6170604 L370.147952,75.862996 L371.695009,75.862996 L373.242068,75.862996 L373.242068,70.9056806 C373.242068,64.0549455 373.413963,62.5287348 374.342198,60.6123653 C375.098537,59.0746792 376.519538,57.9845285 378.513524,57.4222409 C379.877228,57.0435569 383.681844,57.1697845 385.30912,57.6402709 L385.744588,57.7779739 L385.710209,60.5549886 C385.68729,62.0811993 385.652911,63.3664296 385.618532,63.38938 C385.584153,63.4238057 385.068467,63.38938 384.472563,63.3320039 C382.936964,63.1598745 382.180625,63.3320039 381.538882,63.9746185 C380.679406,64.8352637 380.656486,64.9844422 380.599188,70.7909279 L380.564809,75.862996 L383.200537,75.862996 L385.847725,75.862996 L385.847725,78.6170604 L385.847725,81.3711248 L383.211997,81.3711248 L380.576269,81.3711248 L380.576269,84.7563288 L380.576269,88.1415329 L380.324156,88.1300575 C380.17518,88.1185826 379.212566,87.9120275 378.169734,87.6710471 L378.169734,87.6710471 L378.169734,87.6710471 L378.169734,87.6710471 L378.169734,87.6710471 L378.169734,87.6710471 L378.169734,87.6710471 Z" id="Shape" fill="#EF3F2A"></path>
                                    <path d="M208.910129,81.8186602 C207.649563,81.6694817 206.29732,81.4055505 205.16281,81.0727678 C204.097059,80.7629353 202.297888,80.0285183 202.194751,79.867865 C202.148912,79.7760626 203.375099,75.208906 203.489696,75.0712029 C203.501156,75.048252 203.971003,75.2318563 204.521068,75.4843126 C207.661023,76.9416712 211.328123,77.2056024 213.069996,76.0925015 C213.711739,75.6908672 214.193045,74.8875987 214.273263,74.1302308 C214.319102,73.6023683 214.307642,73.5679426 214.055529,73.5679426 C213.230432,73.5679426 210.434267,73.3154868 209.540412,73.1663083 C206.228561,72.6040201 203.432398,71.1925621 202.080154,69.4024203 C199.180853,65.5582058 200.280983,59.9927004 204.337713,57.9845285 C205.621198,57.3533888 206.492134,57.1583097 208.14233,57.1583097 C210.835356,57.1583097 212.737665,57.8468255 214.433699,59.4304128 C215.041062,60.0041759 215.018143,60.0271267 215.212957,58.8222234 C215.293175,58.3861633 215.373393,57.9271524 215.407772,57.8238751 C215.453611,57.6287954 215.717184,57.61732 218.834219,57.61732 C222.008553,57.61732 222.214828,57.6287954 222.157529,57.8238751 C221.951255,58.4664903 221.859577,61.2320296 221.859577,66.3959001 C221.859577,69.6204503 221.802279,72.7417231 221.74498,73.3384371 C221.137617,79.1334474 217.573654,82.0022645 211.087469,81.933413 C210.365509,81.9219375 209.379976,81.8760369 208.910129,81.8186602 L208.910129,81.8186602 L208.910129,81.8186602 L208.910129,81.8186602 L208.910129,81.8186602 L208.910129,81.8186602 L208.910129,81.8186602 Z M214.525376,67.1647429 C214.525376,64.9844422 214.39932,64.5942833 213.448166,63.6303609 C212.611608,62.792666 211.79797,62.4369329 210.720759,62.4369329 C209.803984,62.4369329 209.231,62.6205372 208.692395,63.0795475 C207.443289,64.1582227 207.592265,66.4762271 208.990347,67.5434268 C210.021718,68.3352205 211.511478,68.702429 214.215965,68.8516075 L214.525376,68.8630829 L214.525376,67.1647429 L214.525376,67.1647429 L214.525376,67.1647429 L214.525376,67.1647429 L214.525376,67.1647429 L214.525376,67.1647429 L214.525376,67.1647429 Z" id="Shape" fill="#172751"></path>
                                    <path d="M251.769365,80.6941131 C250.531719,80.55641 248.721088,80.1777261 247.620958,79.8334679 C246.543747,79.4892097 245.008149,78.8121693 245.008149,78.6744657 C245.008149,78.5597135 246.291634,74.0040318 246.348932,73.9466558 C246.360392,73.9237049 246.830239,74.1073091 247.380304,74.3597655 C250.520259,75.8171241 254.18736,76.0810553 255.929232,74.9679543 C256.570975,74.56632 257.052282,73.7630515 257.1325,73.0056836 C257.178338,72.4778212 257.166879,72.4433954 256.914765,72.4433954 C256.765789,72.4433954 255.917772,72.3860193 255.035377,72.3286427 C248.457515,71.8581569 244.652898,69.5745783 243.552769,65.4434818 C243.312115,64.5254605 243.289196,62.4369616 243.50693,61.5418907 C243.988237,59.5451942 245.409238,57.7435774 247.196949,56.8599813 C248.480435,56.2288416 249.351371,56.0337625 251.001566,56.0337625 C253.671674,56.0337625 255.608361,56.7337537 257.281476,58.2943902 C257.900299,58.8796287 257.877379,58.9025796 258.072194,57.6976762 C258.152412,57.2616162 258.23263,56.8026053 258.267009,56.699328 C258.312848,56.5042483 258.576421,56.4927728 261.693456,56.4927728 C264.86779,56.4927728 265.074064,56.5042483 265.016766,56.699328 C264.810491,57.3419431 264.718814,60.1074824 264.718814,65.2713529 C264.718814,68.4959031 264.661515,71.6057011 264.604217,72.1909396 C263.996854,77.9974253 260.43289,80.8777173 253.946706,80.8088658 C253.224746,80.7973903 252.239212,80.7514897 251.769365,80.6941131 L251.769365,80.6941131 L251.769365,80.6941131 L251.769365,80.6941131 L251.769365,80.6941131 L251.769365,80.6941131 L251.769365,80.6941131 Z M257.384613,66.0401957 C257.384613,63.859895 257.258556,63.4697362 256.307402,62.5058137 C255.470845,61.6681188 254.657207,61.3123858 253.579996,61.3123858 C252.663221,61.3123858 252.090236,61.49599 251.551631,61.9550004 C250.302525,63.0336756 250.451501,65.3516799 251.849583,66.4188797 C252.880955,67.2106733 254.370715,67.5778818 257.075201,67.7270603 L257.384613,67.7385358 L257.384613,66.0401957 L257.384613,66.0401957 L257.384613,66.0401957 L257.384613,66.0401957 L257.384613,66.0401957 L257.384613,66.0401957 L257.384613,66.0401957 Z" id="Shape" fill="#172751"></path>
                                    <path d="M309.81269,81.8301357 C308.414608,81.5432536 306.787331,80.5563808 305.904935,79.4432798 C305.618443,79.0875467 305.194435,78.3875549 304.953782,77.8941188 L304.506854,76.9990479 L304.438096,78.3531292 C304.392257,79.0990216 304.334958,80.085895 304.300579,80.5449053 L304.231821,81.3711248 L301.011648,81.3711248 L297.802936,81.3711248 L297.871694,79.9711422 C297.917532,79.2137743 297.951912,73.8662995 297.951912,68.0942396 L297.951912,57.61732 L301.733609,57.61732 L305.515306,57.61732 L305.515306,64.2500251 C305.515306,68.2893193 305.561145,71.066334 305.641363,71.3761664 C306.08829,73.3154868 307.669728,74.6695681 309.80123,74.9334993 C310.293996,74.990876 310.763844,75.0253017 310.832602,75.0023514 C310.90136,74.9794005 311.336828,74.9334993 311.795215,74.8990735 L312.620313,74.830222 L312.620313,78.3187034 C312.620313,81.3940751 312.597394,81.8186602 312.436958,81.8760369 C312.184845,81.9678387 310.362755,81.9448884 309.81269,81.8301357 L309.81269,81.8301357 L309.81269,81.8301357 L309.81269,81.8301357 L309.81269,81.8301357 L309.81269,81.8301357 L309.81269,81.8301357 Z" id="Shape" fill="#EF3F2A"></path>
                                    <path d="M325.684359,81.8760369 C325.523923,81.853086 325.008237,81.772759 324.53839,81.7039075 C322.028718,81.336699 319.484667,80.0170435 317.811552,78.2383764 C316.264494,76.5744627 315.31334,74.5892417 314.854953,72.0532073 C314.557001,70.3663427 314.660138,67.2680207 315.061227,65.7418101 C316.264494,61.1861284 319.576345,58.1796082 324.343575,57.3304385 C326.039609,57.0320815 328.984749,57.1353588 330.554726,57.5484685 C333.981174,58.4779652 336.571063,60.509088 338.060823,63.4697069 C339.814155,66.9467129 339.882913,71.9040288 338.244178,75.4613617 C337.235725,77.6416625 335.425094,79.5236068 333.270673,80.6137569 C332.319518,81.0957187 330.715162,81.5891548 329.500435,81.772759 C328.491982,81.9219375 326.417778,81.9793142 325.684359,81.8760369 L325.684359,81.8760369 L325.684359,81.8760369 L325.684359,81.8760369 L325.684359,81.8760369 L325.684359,81.8760369 L325.684359,81.8760369 Z M328.870152,76.1498781 C330.107799,75.4843126 330.955815,74.1646565 331.425663,72.2368116 C331.780913,70.7794524 331.792373,68.3007947 331.437122,66.8778613 C331.15063,65.7188592 330.657864,64.6746097 330.07342,63.9516682 C328.21695,61.679565 324.801963,62.1844766 323.358042,64.938541 C322.601702,66.3729498 322.418347,67.2680207 322.418347,69.5515987 C322.418347,71.2958394 322.452726,71.6745234 322.68192,72.466317 C323.07155,73.8203983 323.484098,74.5777662 324.251898,75.3580845 C325.191592,76.3105315 325.844794,76.5629878 327.231416,76.5170866 C328.113813,76.4941357 328.354466,76.4367597 328.870152,76.1498781 L328.870152,76.1498781 L328.870152,76.1498781 L328.870152,76.1498781 L328.870152,76.1498781 L328.870152,76.1498781 L328.870152,76.1498781 Z" id="Shape" fill="#EF3F2A"></path>
                                </g>
                            </g>
                        </g>
                    </g>
                </g>
            </g>
        </g>
    </g>
</svg>